<svg width="1499" height="880" viewBox="0 0 1499 880" fill="none" xmlns="http://www.w3.org/2000/svg">
<path d="M607.121 647.006L531.474 722.653C530.211 723.917 530.211 725.972 531.474 727.235C532.738 728.499 534.796 728.502 536.059 727.238L611.706 651.591C612.97 650.328 612.97 648.267 611.706 647.004C610.443 645.74 608.385 645.743 607.121 647.006Z" fill="#E6E6E6"/>
<path d="M611.706 646.938L536.059 571.291C534.795 570.028 532.74 570.028 531.477 571.291C530.213 572.555 530.211 574.612 531.474 575.876L607.121 651.523C608.385 652.786 610.445 652.786 611.708 651.523C612.972 650.259 612.969 648.202 611.706 646.938Z" fill="#E6E6E6"/>
<path d="M609.594 646.148H417.244C415.457 646.148 414 647.601 414 649.388C414 651.179 415.457 652.632 417.244 652.632H609.594C611.38 652.632 612.834 651.179 612.834 649.388C612.834 647.601 611.38 646.148 609.594 646.148Z" fill="#E6E6E6"/>
<g clip-path="url(#clip0_3_218)">
<path d="M1402.76 835.869L1403.54 818.293C1411.69 813.938 1420.78 811.637 1430.01 811.591C1417.3 821.988 1418.89 842.029 1410.27 856.01C1404.75 864.801 1395.54 870.608 1385.23 871.789L1374.59 878.304C1371.63 861.83 1376.04 844.887 1386.65 831.941C1389.62 828.381 1393.03 825.21 1396.8 822.503C1399.35 829.224 1402.76 835.869 1402.76 835.869Z" fill="#F2F2F2"/>
<path d="M864.805 816.609L839.125 808.834C835.757 795.151 835.78 780.852 839.192 767.18C849.767 789.889 879.984 795.089 897.399 813.096C908.314 824.557 913.424 840.36 911.287 856.042L916.908 874.223C891.448 872.385 868.069 859.492 852.931 838.939C848.791 833.2 845.391 826.962 842.809 820.373C853.701 819.138 864.805 816.609 864.805 816.609Z" fill="#F2F2F2"/>
<path d="M1313.77 875.43C1313.77 875.962 1313.56 876.472 1313.18 876.85C1312.81 877.223 1312.3 877.432 1311.77 877.43H1303.73C1302.63 877.434 1301.74 876.545 1301.73 875.444V632.29C1301.73 626.93 1299.93 622.58 1297.72 622.57H797.233C795.013 622.58 793.223 626.93 793.213 632.29V873.94C793.209 874.97 792.427 875.829 791.403 875.93C789.783 876.09 788.163 876.23 786.553 876.36C786.513 876.36 786.473 876.37 786.433 876.37C785.553 876.45 784.673 876.51 783.793 876.58H783.783C783.323 875.75 782.883 874.9 782.433 874.05C782.288 873.761 782.213 873.443 782.213 873.12V619.68C782.213 618.2 782.273 616.71 782.373 615.24C782.515 613.222 782.766 611.212 783.123 609.22C784.813 599.93 788.633 593.64 792.973 593.62H1301.97C1302.61 593.624 1303.23 593.757 1303.81 594.01C1304.67 594.388 1305.44 594.928 1306.08 595.6C1306.96 596.512 1307.71 597.538 1308.31 598.65C1310.45 602.42 1311.98 608.04 1312.52 614.58C1312.52 614.64 1312.53 614.7 1312.53 614.76C1312.67 616.38 1312.74 618.03 1312.73 619.68L1312.87 641.11L1312.96 653.89L1313.23 693.99L1313.33 708.23L1313.77 875.43Z" fill="#E6E6E6"/>
<path d="M1128.02 519.486H1077.02C1075.52 519.489 1074.3 520.708 1074.3 522.211V602.785H1130.75V522.211C1130.75 520.707 1129.53 519.487 1128.03 519.486H1128.02ZM1102.69 565.268C1099.37 565.252 1096.68 562.565 1096.67 559.245V549.951C1096.67 546.625 1099.37 543.928 1102.69 543.928C1106.02 543.928 1108.72 546.625 1108.72 549.951V559.245C1108.7 562.565 1106.01 565.252 1102.69 565.268Z" fill="#CCCCCC"/>
<path d="M1074.13 600.207V607.981C1074.13 608.82 1074.81 609.499 1075.65 609.501H1129.4C1130.24 609.497 1130.92 608.819 1130.92 607.981V600.207H1074.13Z" fill="#3F3D56"/>
<path d="M1212.48 393.742H994.455C990.555 393.748 987.395 396.908 987.389 400.808V547.935C987.393 551.836 990.554 554.998 994.455 555.002H1212.48C1216.39 554.998 1219.55 551.836 1219.55 547.935V400.808C1219.54 396.908 1216.38 393.748 1212.48 393.742Z" fill="#E6E6E6"/>
<path d="M1210.66 398.846H996.277C994.189 398.85 992.498 400.544 992.498 402.633V546.113C992.501 548.199 994.191 549.889 996.277 549.892H1210.66C1212.75 549.889 1214.44 548.199 1214.44 546.113V402.633C1214.44 400.544 1212.75 398.85 1210.66 398.846Z" fill="white"/>
<path d="M1168.91 612.206H1041.36C1040.06 612.206 1039.01 611.155 1039.01 609.86C1039.01 609.697 1039.03 609.535 1039.06 609.376L1041.04 599.977C1041.27 598.893 1042.23 598.118 1043.34 598.114H1166.93C1168.03 598.118 1168.99 598.893 1169.22 599.977L1171.2 609.376C1171.47 610.644 1170.66 611.889 1169.39 612.156C1169.23 612.189 1169.07 612.206 1168.91 612.206Z" fill="#CCCCCC"/>
<path d="M1047.68 599.806H1044.73C1044.46 599.806 1044.24 600.025 1044.24 600.294V601.675C1044.24 601.945 1044.46 602.163 1044.73 602.163H1047.68C1047.95 602.163 1048.17 601.945 1048.17 601.675V600.294C1048.17 600.025 1047.95 599.806 1047.68 599.806Z" fill="#E6E6E6"/>
<path d="M1055.54 599.806H1052.59C1052.32 599.806 1052.1 600.025 1052.1 600.294V601.675C1052.1 601.945 1052.32 602.163 1052.59 602.163H1055.54C1055.81 602.163 1056.03 601.945 1056.03 601.675V600.294C1056.03 600.025 1055.81 599.806 1055.54 599.806Z" fill="#E6E6E6"/>
<path d="M1063.39 599.806H1060.44C1060.17 599.806 1059.95 600.025 1059.95 600.294V601.675C1059.95 601.945 1060.17 602.163 1060.44 602.163H1063.39C1063.66 602.163 1063.88 601.945 1063.88 601.675V600.294C1063.88 600.025 1063.66 599.806 1063.39 599.806Z" fill="#E6E6E6"/>
<path d="M1071.25 599.806H1068.3C1068.03 599.806 1067.81 600.025 1067.81 600.294V601.675C1067.81 601.945 1068.03 602.163 1068.3 602.163H1071.25C1071.52 602.163 1071.74 601.945 1071.74 601.675V600.294C1071.74 600.025 1071.52 599.806 1071.25 599.806Z" fill="#E6E6E6"/>
<path d="M1079.11 599.806H1076.16C1075.89 599.806 1075.67 600.025 1075.67 600.294V601.675C1075.67 601.945 1075.89 602.163 1076.16 602.163H1079.11C1079.38 602.163 1079.6 601.945 1079.6 601.675V600.294C1079.6 600.025 1079.38 599.806 1079.11 599.806Z" fill="#E6E6E6"/>
<path d="M1086.96 599.806H1084.01C1083.74 599.806 1083.52 600.025 1083.52 600.294V601.675C1083.52 601.945 1083.74 602.163 1084.01 602.163H1086.96C1087.23 602.163 1087.45 601.945 1087.45 601.675V600.294C1087.45 600.025 1087.23 599.806 1086.96 599.806Z" fill="#E6E6E6"/>
<path d="M1094.82 599.806H1091.87C1091.6 599.806 1091.38 600.025 1091.38 600.294V601.675C1091.38 601.945 1091.6 602.163 1091.87 602.163H1094.82C1095.09 602.163 1095.31 601.945 1095.31 601.675V600.294C1095.31 600.025 1095.09 599.806 1094.82 599.806Z" fill="#E6E6E6"/>
<path d="M1102.68 599.806H1099.73C1099.46 599.806 1099.24 600.025 1099.24 600.294V601.675C1099.24 601.945 1099.46 602.163 1099.73 602.163H1102.68C1102.95 602.163 1103.17 601.945 1103.17 601.675V600.294C1103.17 600.025 1102.95 599.806 1102.68 599.806Z" fill="#E6E6E6"/>
<path d="M1110.54 599.806H1107.58C1107.31 599.806 1107.1 600.025 1107.1 600.294V601.675C1107.1 601.945 1107.31 602.163 1107.58 602.163H1110.54C1110.8 602.163 1111.02 601.945 1111.02 601.675V600.294C1111.02 600.025 1110.8 599.806 1110.54 599.806Z" fill="#E6E6E6"/>
<path d="M1118.39 599.806H1115.44C1115.17 599.806 1114.95 600.025 1114.95 600.294V601.675C1114.95 601.945 1115.17 602.163 1115.44 602.163H1118.39C1118.66 602.163 1118.88 601.945 1118.88 601.675V600.294C1118.88 600.025 1118.66 599.806 1118.39 599.806Z" fill="#E6E6E6"/>
<path d="M1126.25 599.806H1123.3C1123.03 599.806 1122.81 600.025 1122.81 600.294V601.675C1122.81 601.945 1123.03 602.163 1123.3 602.163H1126.25C1126.52 602.163 1126.74 601.945 1126.74 601.675V600.294C1126.74 600.025 1126.52 599.806 1126.25 599.806Z" fill="#E6E6E6"/>
<path d="M1134.11 599.806H1131.15C1130.88 599.806 1130.67 600.025 1130.67 600.294V601.675C1130.67 601.945 1130.88 602.163 1131.15 602.163H1134.11C1134.38 602.163 1134.59 601.945 1134.59 601.675V600.294C1134.59 600.025 1134.38 599.806 1134.11 599.806Z" fill="#E6E6E6"/>
<path d="M1141.96 599.806H1139.01C1138.74 599.806 1138.52 600.025 1138.52 600.294V601.675C1138.52 601.945 1138.74 602.163 1139.01 602.163H1141.96C1142.23 602.163 1142.45 601.945 1142.45 601.675V600.294C1142.45 600.025 1142.23 599.806 1141.96 599.806Z" fill="#E6E6E6"/>
<path d="M1149.82 599.806H1146.87C1146.6 599.806 1146.38 600.025 1146.38 600.294V601.675C1146.38 601.945 1146.6 602.163 1146.87 602.163H1149.82C1150.09 602.163 1150.31 601.945 1150.31 601.675V600.294C1150.31 600.025 1150.09 599.806 1149.82 599.806Z" fill="#E6E6E6"/>
<path d="M1157.68 599.806H1154.72C1154.45 599.806 1154.24 600.025 1154.24 600.294V601.675C1154.24 601.945 1154.45 602.163 1154.72 602.163H1157.68C1157.95 602.163 1158.16 601.945 1158.16 601.675V600.294C1158.16 600.025 1157.95 599.806 1157.68 599.806Z" fill="#E6E6E6"/>
<path d="M1165.53 599.806H1162.58C1162.31 599.806 1162.09 600.025 1162.09 600.294V601.675C1162.09 601.945 1162.31 602.163 1162.58 602.163H1165.53C1165.8 602.163 1166.02 601.945 1166.02 601.675V600.294C1166.02 600.025 1165.8 599.806 1165.53 599.806Z" fill="#E6E6E6"/>
<path d="M1047.59 603.735H1044.64C1044.37 603.735 1044.15 603.953 1044.15 604.223V605.603C1044.15 605.873 1044.37 606.092 1044.64 606.092H1047.59C1047.86 606.092 1048.08 605.873 1048.08 605.603V604.223C1048.08 603.953 1047.86 603.735 1047.59 603.735Z" fill="#E6E6E6"/>
<path d="M1055.45 603.735H1052.49C1052.22 603.735 1052 603.953 1052 604.223V605.603C1052 605.873 1052.22 606.092 1052.49 606.092H1055.45C1055.71 606.092 1055.93 605.873 1055.93 605.603V604.223C1055.93 603.953 1055.71 603.735 1055.45 603.735Z" fill="#E6E6E6"/>
<path d="M1063.3 603.735H1060.35C1060.08 603.735 1059.86 603.953 1059.86 604.223V605.603C1059.86 605.873 1060.08 606.092 1060.35 606.092H1063.3C1063.57 606.092 1063.79 605.873 1063.79 605.603V604.223C1063.79 603.953 1063.57 603.735 1063.3 603.735Z" fill="#E6E6E6"/>
<path d="M1071.16 603.735H1068.21C1067.94 603.735 1067.72 603.953 1067.72 604.223V605.603C1067.72 605.873 1067.94 606.092 1068.21 606.092H1071.16C1071.43 606.092 1071.65 605.873 1071.65 605.603V604.223C1071.65 603.953 1071.43 603.735 1071.16 603.735Z" fill="#E6E6E6"/>
<path d="M1079.02 603.735H1076.06C1075.79 603.735 1075.58 603.953 1075.58 604.223V605.603C1075.58 605.873 1075.79 606.092 1076.06 606.092H1079.02C1079.29 606.092 1079.5 605.873 1079.5 605.603V604.223C1079.5 603.953 1079.29 603.735 1079.02 603.735Z" fill="#E6E6E6"/>
<path d="M1086.87 603.735H1083.92C1083.65 603.735 1083.43 603.953 1083.43 604.223V605.603C1083.43 605.873 1083.65 606.092 1083.92 606.092H1086.87C1087.14 606.092 1087.36 605.873 1087.36 605.603V604.223C1087.36 603.953 1087.14 603.735 1086.87 603.735Z" fill="#E6E6E6"/>
<path d="M1094.73 603.735H1091.78C1091.51 603.735 1091.29 603.953 1091.29 604.223V605.603C1091.29 605.873 1091.51 606.092 1091.78 606.092H1094.73C1095 606.092 1095.22 605.873 1095.22 605.603V604.223C1095.22 603.953 1095 603.735 1094.73 603.735Z" fill="#E6E6E6"/>
<path d="M1102.59 603.735H1099.63C1099.36 603.735 1099.15 603.953 1099.15 604.223V605.603C1099.15 605.873 1099.36 606.092 1099.63 606.092H1102.59C1102.86 606.092 1103.07 605.873 1103.07 605.603V604.223C1103.07 603.953 1102.86 603.735 1102.59 603.735Z" fill="#E6E6E6"/>
<path d="M1110.44 603.735H1107.49C1107.22 603.735 1107 603.953 1107 604.223V605.603C1107 605.873 1107.22 606.092 1107.49 606.092H1110.44C1110.71 606.092 1110.93 605.873 1110.93 605.603V604.223C1110.93 603.953 1110.71 603.735 1110.44 603.735Z" fill="#E6E6E6"/>
<path d="M1118.3 603.735H1115.35C1115.08 603.735 1114.86 603.953 1114.86 604.223V605.603C1114.86 605.873 1115.08 606.092 1115.35 606.092H1118.3C1118.57 606.092 1118.79 605.873 1118.79 605.603V604.223C1118.79 603.953 1118.57 603.735 1118.3 603.735Z" fill="#E6E6E6"/>
<path d="M1126.16 603.735H1123.2C1122.93 603.735 1122.72 603.953 1122.72 604.223V605.603C1122.72 605.873 1122.93 606.092 1123.2 606.092H1126.16C1126.43 606.092 1126.64 605.873 1126.64 605.603V604.223C1126.64 603.953 1126.43 603.735 1126.16 603.735Z" fill="#E6E6E6"/>
<path d="M1134.01 603.735H1131.06C1130.79 603.735 1130.57 603.953 1130.57 604.223V605.603C1130.57 605.873 1130.79 606.092 1131.06 606.092H1134.01C1134.28 606.092 1134.5 605.873 1134.5 605.603V604.223C1134.5 603.953 1134.28 603.735 1134.01 603.735Z" fill="#E6E6E6"/>
<path d="M1141.87 603.735H1138.92C1138.65 603.735 1138.43 603.953 1138.43 604.223V605.603C1138.43 605.873 1138.65 606.092 1138.92 606.092H1141.87C1142.14 606.092 1142.36 605.873 1142.36 605.603V604.223C1142.36 603.953 1142.14 603.735 1141.87 603.735Z" fill="#E6E6E6"/>
<path d="M1149.73 603.735H1146.77C1146.5 603.735 1146.29 603.953 1146.29 604.223V605.603C1146.29 605.873 1146.5 606.092 1146.77 606.092H1149.73C1150 606.092 1150.21 605.873 1150.21 605.603V604.223C1150.21 603.953 1150 603.735 1149.73 603.735Z" fill="#E6E6E6"/>
<path d="M1157.58 603.735H1154.63C1154.36 603.735 1154.14 603.953 1154.14 604.223V605.603C1154.14 605.873 1154.36 606.092 1154.63 606.092H1157.58C1157.85 606.092 1158.07 605.873 1158.07 605.603V604.223C1158.07 603.953 1157.85 603.735 1157.58 603.735Z" fill="#E6E6E6"/>
<path d="M1165.44 603.735H1162.49C1162.22 603.735 1162 603.953 1162 604.223V605.603C1162 605.873 1162.22 606.092 1162.49 606.092H1165.44C1165.71 606.092 1165.93 605.873 1165.93 605.603V604.223C1165.93 603.953 1165.71 603.735 1165.44 603.735Z" fill="#E6E6E6"/>
<path d="M1112.8 608.449H1082.35C1082.08 608.449 1081.86 608.667 1081.86 608.937V610.317C1081.86 610.587 1082.08 610.806 1082.35 610.806H1112.8C1113.07 610.806 1113.29 610.587 1113.29 610.317V608.937C1113.29 608.667 1113.07 608.449 1112.8 608.449Z" fill="#E6E6E6"/>
<path d="M1199.89 418.614H999.286C998.845 418.605 998.496 418.24 998.506 417.799C998.515 417.372 998.859 417.028 999.286 417.019H1199.89C1200.33 417.028 1200.68 417.394 1200.67 417.834C1200.66 418.261 1200.31 418.605 1199.89 418.614Z" fill="#CACACA"/>
<path d="M1012.94 412.946C1015.52 412.946 1017.62 410.806 1017.62 408.166C1017.62 405.527 1015.52 403.387 1012.94 403.387C1010.36 403.387 1008.27 405.527 1008.27 408.166C1008.27 410.806 1010.36 412.946 1012.94 412.946Z" fill="#CCCCCC"/>
<path d="M1029.09 412.946C1031.67 412.946 1033.77 410.806 1033.77 408.166C1033.77 405.527 1031.67 403.387 1029.09 403.387C1026.51 403.387 1024.42 405.527 1024.42 408.166C1024.42 410.806 1026.51 412.946 1029.09 412.946Z" fill="#CCCCCC"/>
<path d="M1045.24 412.946C1047.82 412.946 1049.92 410.806 1049.92 408.166C1049.92 405.527 1047.82 403.387 1045.24 403.387C1042.66 403.387 1040.57 405.527 1040.57 408.166C1040.57 410.806 1042.66 412.946 1045.24 412.946Z" fill="#CCCCCC"/>
<path d="M1099.38 430.71L1098.73 428.817L1181.59 385.765L1182.24 387.658L1099.38 430.71Z" fill="#3F3D56"/>
<path d="M1349.38 510.452L1348.73 508.559L1398.59 465.725L1399.24 467.617L1349.38 510.452Z" fill="#3F3D56"/>
<path d="M1253.59 520.423L1170.73 477.371L1171.38 475.478L1254.24 518.53L1253.59 520.423Z" fill="#3F3D56"/>
<path d="M1296.01 490.465L1247.43 410.719L1248.97 409.436L1297.54 489.182L1296.01 490.465Z" fill="#3F3D56"/>
<path d="M1333.91 386.554L1286.61 386.336V384.336L1333.91 384.554V386.554Z" fill="#3F3D56"/>
<path d="M1419.61 398.959H1366.61C1359.43 398.959 1353.61 393.139 1353.61 385.959C1353.61 378.78 1359.43 372.959 1366.61 372.959H1419.61C1426.79 372.959 1432.61 378.78 1432.61 385.959C1432.61 393.139 1426.79 398.959 1419.61 398.959Z" fill="#1364E8"/>
<path d="M1485.61 474.959H1432.61C1425.43 474.959 1419.61 469.139 1419.61 461.959C1419.61 454.78 1425.43 448.959 1432.61 448.959H1485.61C1492.79 448.959 1498.61 454.78 1498.61 461.959C1498.61 469.139 1492.79 474.959 1485.61 474.959Z" fill="#1364E8"/>
<path d="M1399.91 528.553L1352.61 528.336V526.336L1399.91 526.553V528.553Z" fill="#3F3D56"/>
<path d="M1485.61 540.959H1432.61C1425.43 540.959 1419.61 535.139 1419.61 527.959C1419.61 520.78 1425.43 514.959 1432.61 514.959H1485.61C1492.79 514.959 1498.61 520.78 1498.61 527.959C1498.61 535.139 1492.79 540.959 1485.61 540.959Z" fill="#1364E8"/>
<path d="M1330.61 532H1277.61C1270.43 532 1264.61 526.18 1264.61 519C1264.61 511.82 1270.43 506 1277.61 506H1330.61C1337.79 506 1343.61 511.82 1343.61 519C1343.61 526.18 1337.79 532 1330.61 532Z" fill="#1364E8"/>
<path d="M1258.61 398H1205.61C1198.43 398 1192.61 392.18 1192.61 385C1192.61 377.82 1198.43 372 1205.61 372H1258.61C1265.79 372 1271.61 377.82 1271.61 385C1271.61 392.18 1265.79 398 1258.61 398Z" fill="#1364E8"/>
<path d="M1005.28 621.18H945.283C940.864 621.18 937.283 624.762 937.283 629.18C937.283 633.598 940.864 637.18 945.283 637.18H967.283V699.18H983.283V637.18H1005.28C1009.7 637.18 1013.28 633.598 1013.28 629.18C1013.28 624.762 1009.7 621.18 1005.28 621.18Z" fill="#3F3D56"/>
<path d="M1044.88 733.517H884.401C852.242 733.4 825.034 709.717 820.484 677.881L814.804 656.986C803.046 613.685 785.136 572.296 761.622 534.083C750.875 516.629 745.343 499.734 757.907 483.467C758.014 483.329 758.12 483.192 758.223 483.058C768.3 469.941 818.457 467.102 834.809 466.55C835.455 466.528 836.103 466.517 836.754 466.517H936.573C937.224 466.517 937.872 466.528 938.518 466.55C956.476 467.073 972.697 477.413 980.754 493.471C989.351 509.865 988.254 529.656 977.898 545C942.834 597.671 932.099 630.698 943.09 652.085C953.721 672.773 986.31 683.35 1045.65 685.371C1061.59 685.914 1068.91 698.331 1068.96 709.637C1069.01 720.652 1061.98 732.813 1046.41 733.485C1045.91 733.506 1045.4 733.517 1044.88 733.517Z" fill="#3F3D56"/>
<path d="M911.663 876.017H971.663C976.082 876.017 979.663 872.435 979.663 868.017C979.663 863.599 976.082 860.017 971.663 860.017H949.663V725.017H933.663V860.017H911.663C907.245 860.017 903.663 863.599 903.663 868.017C903.663 872.435 907.245 876.017 911.663 876.017Z" fill="#3F3D56"/>
<path d="M965.969 821.592L976.305 827.206L1003.67 789.375L988.411 781.088L965.969 821.592Z" fill="#A0616A"/>
<path d="M970.945 808.111L989.709 813.987L986.722 821.848L999.589 840.522C1001.23 842.911 1000.63 846.182 998.245 847.828C996.823 848.808 995.011 849.027 993.398 848.413L971.554 840.114L970.743 830.908L966.319 838.125L958.083 834.996L970.945 808.111Z" fill="#2F2E41"/>
<path d="M992.085 440.076C993.01 446.423 988.615 452.319 982.268 453.245C981.591 453.343 980.907 453.382 980.224 453.361L940.372 538.156L927.873 520.726L968.897 440.545C969.528 434.127 975.242 429.435 981.66 430.065C987.031 430.592 991.34 434.731 992.085 440.076Z" fill="#A0616A"/>
<path d="M859.835 555.301C859.835 555.301 858.767 570.114 875.52 573.02C892.273 575.925 937.059 547.605 944.414 543.256C951.769 538.907 965.476 484.195 965.476 484.195L953.556 464.034C938.838 482.651 927.281 499.818 926.579 512.004L859.835 555.301Z" fill="#1364E8"/>
<path d="M879.175 606.327L882.794 621.873C882.794 621.873 882.829 636.208 885.368 638.851C887.889 641.482 943.323 636.2 943.323 636.2C943.323 636.2 937.446 613.1 937.524 595.621L879.175 606.327Z" fill="#A0616A"/>
<path d="M996.283 805.18L976.283 794.18C975.902 768.155 991.556 732.937 1010.12 696.048C968.599 703.189 929.426 705.477 895.543 696.838C883.969 693.781 876.993 681.998 879.88 670.38C880.012 669.832 880.165 669.29 880.338 668.753C884.393 656.381 875.3 648.625 883.663 635.017C905.66 627.505 926.555 625.383 945.663 632.017L957.636 658.488L1016.98 650.809C1028.98 649.375 1039.87 657.939 1041.3 669.939C1041.31 669.993 1041.32 670.048 1041.32 670.103C1041.4 670.747 1041.45 671.394 1041.48 672.043C1029.48 728.296 1016.02 778.912 996.283 805.18Z" fill="#2F2E41"/>
<path d="M871.12 507.904L893.981 506.554C895.957 506.438 897.79 507.587 898.545 509.418L905.005 525.079L931.856 547.271C931.856 547.271 942.486 560.799 942.511 578.27C942.536 595.742 946.283 636.18 946.283 636.18C946.283 636.18 930.768 614.342 921.191 620.15C919.562 621.138 918.989 623.159 917.283 624.18C916.431 624.69 914.465 624.194 913.605 624.705C900.409 632.538 886.647 640.191 885.362 638.849C882.837 636.215 879.774 622.752 879.774 622.752L858.848 545.865C856.551 537.673 858.036 528.884 862.897 521.903C864.359 519.844 865.891 518.313 867.315 518.06C870.511 517.379 868.811 510.216 871.12 507.904Z" fill="#1364E8"/>
<path d="M1065.59 854.16L1075.24 847.451L1053.38 806.207L1039.14 816.109L1065.59 854.16Z" fill="#A0616A"/>
<path d="M1067.05 826.486L1051.92 840.005C1027.88 813.209 1009.7 775.629 994.291 732.952C953.925 721.13 923.484 702.064 896.909 679.425C887.894 671.797 881.135 661.997 888.824 652.704C889.184 652.27 889.559 651.85 889.95 651.444C899.029 642.114 922.051 643.892 935.535 635.344L965.656 667.541L963.762 676.172L1020.34 695.337C1031.73 699.329 1037.73 711.798 1033.73 723.187C1033.71 723.243 1033.69 723.299 1033.67 723.354C1033.46 723.968 1033.22 724.572 1032.96 725.165L1067.05 826.486Z" fill="#2F2E41"/>
<path d="M1059.96 851.44L1075.41 839.275L1080.21 846.18L1102.89 846.111C1105.79 846.102 1108.15 848.446 1108.16 851.347C1108.16 853.073 1107.32 854.692 1105.9 855.677L1086.72 869.015L1078.66 864.484L1082.12 872.211L1074.88 877.24L1059.96 851.44Z" fill="#2F2E41"/>
<path d="M904.878 701.673C898.974 699.167 896.219 692.349 898.725 686.444C898.992 685.814 899.314 685.21 899.688 684.637L847.934 606.535L869.32 604.909L916.522 681.616C921.679 685.489 922.72 692.809 918.848 697.966C915.607 702.281 909.832 703.814 904.878 701.673Z" fill="#A0616A"/>
<path d="M875.121 528.811C875.121 528.811 863.018 520.203 851.833 533.009C840.647 545.815 841.581 598.796 841.476 607.339C841.443 610.015 845.306 615.788 850.629 622.456C853.019 625.45 855.702 628.624 858.46 631.779C860.055 633.605 858.68 637.406 860.283 639.18C861.876 640.945 866.447 640.685 867.963 642.323C875.157 650.098 881.001 656.017 881.001 656.017L904.421 656.305C904.686 638.895 892.763 623.354 877.446 608.335L875.121 528.811Z" fill="#1364E8"/>
<path d="M851.514 453.008C849.297 454.608 846.964 456.257 844.259 456.654C841.553 457.05 838.385 455.742 837.637 453.112C836.721 449.896 839.625 446.968 842.235 444.878L850.511 438.251C852.026 436.907 853.737 435.801 855.585 434.971C857.465 434.144 859.619 434.216 861.439 435.166C863.248 436.388 864.294 438.46 864.202 440.64C864.084 442.789 863.375 444.864 862.153 446.636C859.048 451.475 854.103 454.836 848.461 455.943" fill="#2F2E41"/>
<path d="M914.283 625.18H854.283C849.864 625.18 846.283 628.762 846.283 633.18C846.283 637.598 849.864 641.18 854.283 641.18H876.283V703.18H892.283V641.18H914.283C918.701 641.18 922.283 637.598 922.283 633.18C922.283 628.762 918.701 625.18 914.283 625.18Z" fill="#3F3D56"/>
<path d="M855.19 436.223C855.432 430.225 849.04 425.476 843.05 425.851C837.061 426.227 831.912 430.44 828.516 435.389C825.12 440.334 823.08 446.062 820.405 451.431C817.73 456.801 814.168 462.058 808.852 464.84C803.537 467.618 796.139 467.123 792.466 462.379C790.149 465.892 789.645 470.299 791.109 474.244C792.613 478.139 795.417 481.393 799.047 483.455C800.492 484.312 802.035 484.991 803.643 485.476C804.306 483.687 805.239 482.009 806.409 480.501C805.881 482.286 805.679 484.152 805.814 486.008C808.292 486.483 810.842 486.443 813.304 485.89C818.207 484.793 822.306 481.451 824.366 476.869C826.612 471.551 825.468 465.488 825.949 459.736C826.425 453.982 829.892 447.414 835.665 447.321C840.061 447.248 839.479 447.611 842.265 451.012" fill="#2F2E41"/>
<path d="M895.111 467.742C895.111 482.101 883.471 493.742 869.111 493.742C854.752 493.742 841.111 477.101 841.111 462.742C841.111 448.383 854.752 441.742 869.111 441.742C883.471 441.742 895.111 453.383 895.111 467.742Z" fill="#2F2E41"/>
<path d="M881.924 498.9C895.345 496.154 903.999 483.047 901.253 469.626C898.506 456.204 885.4 447.55 871.978 450.297C858.557 453.043 849.903 466.149 852.649 479.571C855.396 492.992 868.502 501.646 881.924 498.9Z" fill="#A0616A"/>
<path d="M908.111 470.742C900.768 472.747 893.354 474.849 890.491 470.742C889.935 468.019 888.881 465.422 887.381 463.082C887.099 465.703 886.484 468.277 885.551 470.742C876.274 472.758 867.604 473.24 860.111 470.742C859.081 472.605 858.483 474.676 858.361 476.802C857.991 476.569 857.603 476.365 857.201 476.192C856.719 475.92 856.144 475.869 855.621 476.052C855.26 476.27 855.02 476.643 854.971 477.062C854.922 477.479 854.942 477.902 855.031 478.312C855.136 479.742 855.564 481.13 856.281 482.372C856.855 483.237 857.766 483.821 858.791 483.982C859.831 489.832 868.111 497.742 868.111 497.742C843.111 498.742 843.111 481.782 843.111 465.742L846.111 459.742H856.111V446.742H884.111C897.365 446.745 908.108 457.489 908.111 470.742Z" fill="#2F2E41"/>
<path d="M1135.95 878.911L697.197 879.219C696.539 879.222 696.003 878.692 696 878.034C695.997 877.377 696.527 876.841 697.184 876.837H697.197L1135.95 876.53C1136.6 876.532 1137.14 877.067 1137.13 877.725C1137.13 878.379 1136.6 878.909 1135.95 878.911Z" fill="#CACACA"/>
<path d="M1428.95 878.911L1202.2 879.219C1201.54 879.222 1201 878.692 1201 878.034C1201 877.377 1201.53 876.841 1202.18 876.837H1202.2L1428.95 876.53C1429.6 876.528 1430.14 877.059 1430.14 877.717C1430.14 878.374 1429.61 878.909 1428.95 878.911H1428.95Z" fill="#CACACA"/>
<path d="M1145.97 520H1060.02C1052.56 519.992 1046.51 513.942 1046.5 506.477V449.523C1046.51 442.058 1052.56 436.008 1060.02 436H1145.97C1153.44 436.008 1159.49 442.058 1159.5 449.523V506.477C1159.49 513.942 1153.44 519.992 1145.97 520ZM1060.02 438C1053.66 438.007 1048.51 443.162 1048.5 449.523V506.477C1048.51 512.838 1053.66 517.993 1060.02 518H1145.97C1152.34 517.993 1157.49 512.838 1157.5 506.477V449.523C1157.49 443.162 1152.34 438.007 1145.97 438L1060.02 438Z" fill="#E6E6E6"/>
<path d="M1085.49 454H1062.5V456H1085.49V454Z" fill="#E6E6E6"/>
<path d="M1113.5 462H1062.5V464H1113.5V462Z" fill="#E6E6E6"/>
<path d="M1113.5 469H1062.5V471H1113.5V469Z" fill="#E6E6E6"/>
<path d="M1127.5 476H1062.5V478H1127.5V476Z" fill="#E6E6E6"/>
<path d="M1096.5 483H1062.5V485H1096.5V483Z" fill="#E6E6E6"/>
<path d="M1124.5 490H1062.5V492H1124.5V490Z" fill="#E6E6E6"/>
<path d="M1073.5 497H1062.5V499H1073.5V497Z" fill="#E6E6E6"/>
<path d="M1061.75 410.958C1061.65 410.958 1061.55 410.921 1061.48 410.846L1059.35 408.665C1059.21 408.519 1059.21 408.287 1059.35 408.142L1061.48 405.961C1061.63 405.813 1061.86 405.811 1062.01 405.955C1062.16 406.099 1062.16 406.336 1062.02 406.484L1060.14 408.403L1062.02 410.323C1062.16 410.47 1062.16 410.707 1062.01 410.852C1061.94 410.923 1061.84 410.958 1061.75 410.958Z" fill="#CCCCCC"/>
<path d="M1065.33 410.958C1065.24 410.958 1065.15 410.923 1065.07 410.852C1064.93 410.707 1064.92 410.471 1065.07 410.323L1066.94 408.403L1065.07 406.484C1064.92 406.336 1064.93 406.099 1065.07 405.955C1065.22 405.81 1065.46 405.813 1065.6 405.961L1067.74 408.142C1067.88 408.287 1067.88 408.519 1067.74 408.665L1065.6 410.846C1065.53 410.921 1065.43 410.958 1065.33 410.958Z" fill="#CCCCCC"/>
<path d="M1176.96 405.545H1172.99C1172.54 405.545 1172.17 405.911 1172.17 406.364V410.335C1172.17 410.788 1172.54 411.154 1172.99 411.154H1176.96C1177.41 411.154 1177.78 410.788 1177.78 410.335V406.364C1177.78 405.911 1177.41 405.545 1176.96 405.545Z" fill="#CCCCCC"/>
<path d="M1167.24 405.545H1163.27C1162.82 405.545 1162.45 405.911 1162.45 406.364V410.335C1162.45 410.788 1162.82 411.154 1163.27 411.154H1167.24C1167.69 411.154 1168.06 410.788 1168.06 410.335V406.364C1168.06 405.911 1167.69 405.545 1167.24 405.545Z" fill="#CCCCCC"/>
<path d="M1186.12 405.732H1182.15C1181.7 405.732 1181.33 406.098 1181.33 406.551V410.522C1181.33 410.974 1181.7 411.341 1182.15 411.341H1186.12C1186.57 411.341 1186.94 410.974 1186.94 410.522V406.551C1186.94 406.098 1186.57 405.732 1186.12 405.732Z" fill="#CCCCCC"/>
<path d="M1126.32 407.243H1094.61C1094.05 407.243 1093.61 407.691 1093.61 408.241C1093.61 408.791 1094.05 409.239 1094.61 409.239H1126.32C1126.87 409.239 1127.32 408.791 1127.32 408.241C1127.32 407.691 1126.87 407.243 1126.32 407.243Z" fill="#CCCCCC"/>
</g>
<path d="M421.748 263.27C421.748 301.91 408.248 334.9 382.558 359.45C364.328 376.88 336.248 401.31 336.248 427.14V448.51H250.748V427.14C250.748 401.04 222.558 376.56 204.438 359.45C179.328 335.76 165.248 300.53 165.248 263.27V262.48C165.358 228.469 178.973 195.895 203.098 171.922C227.223 147.949 259.883 134.541 293.893 134.646C327.903 134.75 360.479 148.36 384.456 172.481C408.433 196.602 421.847 229.259 421.748 263.27Z" fill="#1364E8"/>
<path d="M336.247 451.51C335.451 451.51 334.688 451.194 334.126 450.631C333.563 450.069 333.247 449.306 333.247 448.51V427.136C333.247 402.011 358.026 378.556 376.12 361.43C377.62 360.008 379.081 358.63 380.483 357.285C405.512 333.357 418.742 300.848 418.742 263.271C418.742 193.042 363.729 138.028 293.5 138.028H293.146C260.096 138.065 228.404 151.187 205.001 174.524C181.598 197.861 168.387 229.516 168.257 262.566V263.266C168.257 300.066 182.196 334.329 206.502 357.273C207.733 358.436 209.012 359.633 210.325 360.862C228.652 378.021 253.752 401.52 253.752 427.137V448.51C253.752 449.306 253.436 450.069 252.873 450.631C252.311 451.194 251.548 451.51 250.752 451.51C249.956 451.51 249.193 451.194 248.631 450.631C248.068 450.069 247.752 449.306 247.752 448.51V427.136C247.752 404.121 223.752 381.65 206.224 365.236C204.905 364.002 203.625 362.8 202.383 361.631C176.883 337.559 162.257 301.707 162.257 263.267V262.547C162.457 190.502 221.142 132.024 293.137 132.024H293.508C328.133 131.844 361.412 145.426 386.023 169.783C410.635 194.139 424.562 227.275 424.742 261.9C424.745 262.357 424.744 262.814 424.742 263.271C424.742 302.526 410.871 336.535 384.63 361.622C383.221 362.969 381.754 364.358 380.244 365.787C362.944 382.164 339.244 404.593 339.244 427.136V448.51C339.244 449.306 338.928 450.069 338.365 450.631C337.803 451.194 337.04 451.51 336.244 451.51H336.247Z" fill="#3F3D56"/>
<path d="M321.999 490.005H264.999C263.673 490.005 262.401 489.478 261.464 488.541C260.526 487.603 259.999 486.331 259.999 485.005C259.999 483.679 260.526 482.407 261.464 481.469C262.401 480.532 263.673 480.005 264.999 480.005H321.999C323.325 480.005 324.597 480.532 325.535 481.469C326.472 482.407 326.999 483.679 326.999 485.005C326.999 486.331 326.472 487.603 325.535 488.541C324.597 489.478 323.325 490.005 321.999 490.005Z" fill="#1364E8"/>
<path d="M299.628 523.505H287.361C283.1 523.508 278.919 522.349 275.267 520.154C274.726 519.838 274.306 519.35 274.076 518.767C273.846 518.184 273.819 517.54 273.999 516.94C274.163 516.323 274.527 515.779 275.034 515.391C275.541 515.004 276.162 514.795 276.8 514.798H310.189C310.827 514.795 311.448 515.004 311.955 515.391C312.462 515.779 312.826 516.323 312.991 516.94C313.171 517.54 313.143 518.184 312.913 518.767C312.683 519.35 312.264 519.839 311.722 520.154C308.07 522.349 303.889 523.508 299.628 523.505Z" fill="#3F3D56"/>
<path d="M322.009 505.799L264.671 505.792L264.493 505.412C264.324 504.711 264.317 503.982 264.473 503.278C264.629 502.575 264.944 501.917 265.393 501.354C265.848 500.776 266.429 500.309 267.092 499.989C267.754 499.669 268.48 499.503 269.216 499.505H317.773C318.509 499.503 319.236 499.669 319.898 499.989C320.56 500.31 321.141 500.776 321.597 501.354C322.042 501.909 322.356 502.559 322.514 503.253C322.671 503.947 322.669 504.668 322.508 505.361L322.418 505.748L322.009 505.799Z" fill="#3F3D56"/>
<path d="M160.899 145.411C159.69 145.412 158.523 144.974 157.613 144.178L114.674 106.697C113.69 105.821 113.092 104.592 113.01 103.277C112.927 101.962 113.367 100.668 114.233 99.6755C115.1 98.683 116.323 98.0726 117.637 97.9769C118.95 97.8811 120.249 98.3077 121.25 99.164L164.189 136.645C164.956 137.314 165.5 138.202 165.749 139.189C165.998 140.176 165.94 141.216 165.583 142.169C165.225 143.122 164.585 143.943 163.748 144.523C162.911 145.102 161.917 145.412 160.899 145.412V145.411Z" fill="#E4E4E4"/>
<path d="M418.977 145.411C417.959 145.411 416.965 145.101 416.129 144.522C415.292 143.942 414.652 143.121 414.294 142.168C413.936 141.215 413.878 140.175 414.127 139.188C414.376 138.201 414.92 137.313 415.687 136.644L458.625 99.16C459.626 98.3037 460.925 97.8771 462.239 97.9728C463.553 98.0686 464.776 98.679 465.642 99.6714C466.508 100.664 466.948 101.958 466.865 103.273C466.783 104.588 466.185 105.817 465.201 106.693L422.262 144.174C421.354 144.971 420.186 145.411 418.977 145.411Z" fill="#E4E4E4"/>
<path d="M336.247 472.26H250.747C249.421 472.26 248.149 471.733 247.212 470.796C246.274 469.858 245.747 468.586 245.747 467.26C245.747 465.934 246.274 464.662 247.212 463.724C248.149 462.787 249.421 462.26 250.747 462.26H336.247C337.573 462.26 338.845 462.787 339.783 463.724C340.72 464.662 341.247 465.934 341.247 467.26C341.247 468.586 340.72 469.858 339.783 470.796C338.845 471.733 337.573 472.26 336.247 472.26Z" fill="#1364E8"/>
<path d="M291.398 341.639L273.618 448.509H263.468L281.528 339.999C281.746 338.691 282.474 337.522 283.553 336.75C284.633 335.978 285.974 335.667 287.283 335.884C288.592 336.102 289.761 336.83 290.533 337.91C291.304 338.989 291.616 340.331 291.398 341.639Z" fill="#E6E6E6"/>
<path d="M325.568 448.509H315.418L297.638 341.639C297.421 340.331 297.732 338.989 298.504 337.91C299.275 336.83 300.444 336.102 301.753 335.884C303.062 335.667 304.403 335.978 305.483 336.75C306.562 337.522 307.291 338.691 307.508 339.999L325.568 448.509Z" fill="#E6E6E6"/>
<path d="M261.003 338.069C261.003 336.743 261.529 335.472 262.467 334.534C263.405 333.596 264.677 333.069 266.003 333.069H320.996C322.322 333.069 323.594 333.596 324.531 334.534C325.469 335.472 325.996 336.743 325.996 338.069C325.996 339.396 325.469 340.667 324.531 341.605C323.594 342.543 322.322 343.069 320.996 343.069H266.003C264.677 343.069 263.405 342.543 262.467 341.605C261.529 340.667 261.003 339.396 261.003 338.069Z" fill="#E6E6E6"/>
<path d="M293.499 95.5C292.173 95.5 290.901 94.9732 289.964 94.0355C289.026 93.0978 288.499 91.8261 288.499 90.5V5C288.499 3.67392 289.026 2.40215 289.964 1.46447C290.901 0.526784 292.173 0 293.499 0C294.825 0 296.097 0.526784 297.035 1.46447C297.972 2.40215 298.499 3.67392 298.499 5V90.5C298.499 91.8261 297.972 93.0978 297.035 94.0355C296.097 94.9732 294.825 95.5 293.499 95.5Z" fill="#E4E4E4"/>
<path d="M11.535 863.58C15.2511 868.589 19.8579 872.87 25.1248 876.21C26.2449 876.92 27.3948 877.59 28.5647 878.21H56.0945C55.765 877.55 55.4446 876.88 55.1345 876.21C46.5987 858.198 43.922 837.964 47.4808 818.351C51.0395 798.739 60.6547 780.735 74.9749 766.87C58.3347 772.01 42.9549 782.03 32.8948 796.24C28.0066 803.16 24.5304 810.976 22.6648 819.24C21.0023 802.712 23.6445 786.035 30.3347 770.83C16.8249 781.82 6.30441 796.87 2.29468 813.81C-1.71507 830.76 1.19463 849.57 11.535 863.58Z" fill="#F0F0F0"/>
<path d="M0.382141 879.051H258.12V876.945H0.00012207L0.382141 879.051Z" fill="#3F3D56"/>
<path d="M67.817 865.061H80.075L85.907 817.773H67.815L67.817 865.061Z" fill="#FEB8B8"/>
<path d="M64.6899 876.945H104.221V876.445C104.221 872.365 102.6 868.452 99.7145 865.567C96.8294 862.681 92.9163 861.06 88.8359 861.059H64.6899L64.6899 876.945Z" fill="#2F2E41"/>
<path d="M160.954 864.657L172.798 861.49L166.218 814.3L148.738 818.974L160.954 864.657Z" fill="#FEB8B8"/>
<path d="M161.003 876.945L199.192 866.733L199.063 866.25C198.009 862.308 195.432 858.946 191.899 856.904C188.366 854.862 184.166 854.306 180.224 855.36L156.899 861.597L161.003 876.945Z" fill="#2F2E41"/>
<path d="M60.7641 600.049L50.4951 611.98L63.7751 854.422H92.1441L106.444 667.871L150.793 859.425L180.285 852.192L153.469 608.892L60.7641 600.049Z" fill="#2F2E41"/>
<path d="M146.613 443.524L118.367 429.352L74.93 430.116L37.55 449.243L58.818 555.461L49.631 610.841C85.139 619.897 122.314 620.203 157.966 611.733L158.25 611.665C158.25 611.665 137.136 536.749 146.124 513.886L146.613 443.524Z" fill="#E6E6E6"/>
<path d="M64.897 386.916C64.9284 378.441 68.3212 370.325 74.3306 364.349C80.34 358.373 88.475 355.025 96.95 355.041C105.425 355.057 113.548 358.434 119.535 364.433C125.522 370.431 128.885 378.56 128.885 387.035C128.885 395.51 125.522 403.639 119.535 409.637C113.548 415.636 105.425 419.013 96.95 419.029C88.475 419.045 80.34 415.697 74.3306 409.721C68.3212 403.745 64.9284 395.629 64.897 387.153V386.916Z" fill="#FEB8B8"/>
<path d="M150.511 520.965C149.903 522.527 148.96 523.936 147.749 525.094C146.538 526.251 145.087 527.129 143.5 527.666C141.912 528.202 140.227 528.384 138.561 528.199C136.896 528.013 135.292 527.465 133.861 526.592L76.5081 556.91L74.6511 542.939L130.381 510.076C132.006 507.771 134.421 506.141 137.168 505.497C139.914 504.852 142.802 505.238 145.283 506.58C147.764 507.922 149.667 510.128 150.631 512.779C151.595 515.43 151.552 518.343 150.512 520.965H150.511Z" fill="#FEB8B8"/>
<path d="M74.0822 523.38C75.0169 524.771 76.2452 525.94 77.6805 526.805C79.1159 527.669 80.7234 528.209 82.3897 528.385C84.0561 528.561 85.7408 528.37 87.3252 527.824C88.9096 527.279 90.3552 526.393 91.5601 525.228L154.16 542.263L153.615 524.525L91.3441 508.352C89.2536 506.458 86.5407 505.396 83.7195 505.368C80.8983 505.339 78.1649 506.347 76.0371 508.2C73.9094 510.053 72.5352 512.622 72.175 515.42C71.8149 518.218 72.4938 521.051 74.0831 523.382L74.0822 523.38Z" fill="#FEB8B8"/>
<path d="M49.756 450.012L37.5511 449.247C37.5511 449.247 23.2611 468.102 31.1871 488.563C31.1871 488.563 29.8141 562.063 61.4631 559.043C93.1121 556.023 103.113 556.024 103.113 556.024L93.613 529.524L72.36 522.962C72.36 522.962 78.91 494.068 66.511 482.046L49.756 450.012Z" fill="#E6E6E6"/>
<path d="M137.888 449.367L139.613 440.524C139.613 440.524 165.053 439.924 170.083 478.475C170.083 478.475 192.96 536.167 170.537 543.596C148.114 551.025 123.448 543.596 123.448 543.596L125.305 518.152L149.975 513.119C149.975 513.119 137.23 496.63 144.17 482.327L137.888 449.367Z" fill="#E6E6E6"/>
<path d="M85.8136 402.627C88.1663 401.704 90.7726 401.752 93.2593 401.296C102.153 399.657 109.012 390.59 108.167 381.586C107.955 380.42 107.935 379.226 108.109 378.053C108.726 375.484 111.581 374.106 114.204 373.798C116.827 373.49 119.538 373.884 122.089 373.201C126.029 372.146 128.972 368.553 129.97 364.598C130.82 360.576 130.376 356.389 128.703 352.635L127.479 355.187C126.206 353.836 125.337 352.154 124.973 350.334C123.903 350.392 122.867 350.723 121.962 351.296C121.058 351.869 120.315 352.664 119.806 353.607C118.225 354.313 118.418 350.7 116.842 349.986C116.133 349.814 115.385 349.912 114.742 350.259C111.27 351.424 107.586 349.676 104.145 348.423C98.1841 346.261 91.7981 345.531 85.5032 346.293C81.3205 346.804 77.0982 348.04 73.843 350.712C71.271 353.043 69.1797 355.853 67.687 358.986C63.67 366.495 60.6438 374.778 60.7262 383.296C60.808 390.268 62.953 397.06 66.8907 402.815C68.9427 405.801 75.5705 416.158 79.9755 415.018C85.5094 413.589 79.1887 405.225 85.8136 402.627Z" fill="#2F2E41"/>
<defs>
<clipPath id="clip0_3_218">
<rect width="802.611" height="507.219" fill="white" transform="translate(696 372)"/>
</clipPath>
</defs>
</svg>
